<svg xmlns="http://www.w3.org/2000/svg" xmlns:xlink="http://www.w3.org/1999/xlink" version="1.1" x="0px" y="0px" viewBox="0 0 64 80" style="enable-background:new 0 0 64 64;" xml:space="preserve"><g><path d="M16.708,19.341c-1.603-1.069-2.982-2.405-4.102-3.973l-2.774-3.882c-0.504-0.294-1.43-0.409-2.087-0.455   c-0.042-0.265-0.066-0.533-0.119-0.796L7.276,8.483c-0.444,0.834-0.768,1.72-0.982,2.634C5.017,11.5,3,12.949,3.002,17.281   l0.5,0.167c1.289,0.43,2.516,1.028,3.645,1.781l0.233,0.157c0.682,0.454,1.318,0.979,1.92,1.538   c0.582-0.406,1.058-0.945,1.394-1.568c-0.039-0.059-0.072-0.121-0.112-0.18l-0.414-0.621l1.664-1.109l0.414,0.621   c1.101,1.651,1.979,3.444,2.606,5.33c0.479,1.435,0.791,2.909,0.97,4.403c3.139-0.775,5.701-3.037,6.86-6.059   C20.558,21.358,18.528,20.554,16.708,19.341z"/><path d="M59.724,23.388l-0.337-0.505c-0.912-1.367-2.289-2.315-3.847-2.695c1.013,1.793,1.504,3.799,1.455,5.812H57v2.597   c0,2.916,0.75,5.791,2.146,8.329c0.227-2.366,0.717-4.675,1.465-6.918C60.869,29.23,61,28.422,61,27.604   C61,26.1,60.559,24.641,59.724,23.388z"/><path d="M17.817,17.677c2.143,1.428,4.618,2.215,7.183,2.305v-1.113c-3.284-1.103-6.328-2.987-8.9-5.59   c-1.095-1.109-2.527-1.834-4.046-2.123l2.18,3.051C15.212,15.575,16.417,16.743,17.817,17.677z"/><path d="M41,18.387l-1.288,0.429c-0.235,0.078-0.475,0.135-0.712,0.206V25H29v-5.208c-0.673-0.089-1.34-0.207-2-0.36V27h14V18.387z   "/><path d="M37,19.522C35.495,19.828,33.966,20,32.421,20H31.81c-0.272,0-0.539-0.031-0.81-0.041V23h6V19.522z"/><path d="M6.035,20.891c-0.83-0.553-1.732-0.988-2.667-1.343L4.803,26h1.416l0.718-2.867c0.104-0.416,0.342-0.778,0.668-1.049   c-0.426-0.37-0.867-0.723-1.336-1.036L6.035,20.891z"/><path d="M52.277,32.309c0.58-0.58,1.028-1.142,1.37-1.715c1.985-3.338,1.767-7.461-0.557-10.502   c-1.613-2.114-4.406-3.297-7.335-3.062c-0.651,0.052-1.291,0.204-1.91,0.41L43,17.721V27c0,1.105-0.895,2-2,2H27   c-1.105,0-2-0.895-2-2l0-5.018c-0.141-0.025-0.106-0.019-0.247-0.043c-1.323,4.003-4.672,7.012-8.778,7.901   C15.981,30.048,16,30.256,16,30.465c0,1.8,1,3.417,2.609,4.222l1.293,1.646l2.037,12.225C21.98,48.799,22,49.044,22,49.289v2.46   c0,1.143-0.543,2.172-1.332,2.998c-0.334,0.35-0.552,0.784-0.633,1.253h4.338c0.907,0,1.621-0.762,1.579-1.668   c-0.04-0.873-0.106-1.747-0.197-2.613l-1.626-16.273C24.129,35.446,28,37,35,37c6,0,9.613-2.479,9.613-2.479   c0.149,0.346,0.319,0.683,0.521,1.005l2.601,4.162C48.562,41.012,49,42.537,49,44.099c0,0.682-0.084,1.36-0.249,2.019l-1.848,7.395   L45,55.414V56h4.731c0.702,0,1.273-0.567,1.277-1.269l0.012-1.927l1.826-9.131C52.948,43.159,53,42.634,53,42.113   c0-1.229-0.29-2.459-0.84-3.557l-0.73-1.46C51.148,36.532,51,35.903,51,35.274c0-1.089,0.424-2.112,1.193-2.882L52.277,32.309z"/></g><text x="0" y="79" fill="#000000" font-size="5px" font-weight="bold" font-family="'Helvetica Neue', Helvetica, Arial-Unicode, Arial, Sans-serif">Created by Eucalyp</text><text x="0" y="84" fill="#000000" font-size="5px" font-weight="bold" font-family="'Helvetica Neue', Helvetica, Arial-Unicode, Arial, Sans-serif">from the Noun Project</text></svg>